<svg width="69" height="32" viewBox="0 0 69 32" fill="none" xmlns="http://www.w3.org/2000/svg">
<path d="M34.5532 14.1691C37.0326 14.1691 38.092 12.4785 38.3512 11.374L36.6494 10.8894C36.4916 11.4642 35.9394 12.3884 34.5532 12.3884C33.3585 12.3884 32.254 11.5206 32.254 10.0216C32.254 8.34236 33.46 7.57598 34.5306 7.57598C35.9394 7.57598 36.4466 8.51141 36.5705 9.06365L38.2498 8.53395C37.9906 7.38439 36.9312 5.84037 34.5306 5.84037C32.2991 5.84037 30.4057 7.5309 30.4057 10.0216C30.4057 12.5123 32.254 14.1691 34.5532 14.1691ZM46.3357 14V6.00942H44.5438V9.14254H41.3543V6.00942H39.5736V14H41.3543V10.8218H44.5438V14H46.3357ZM49.4455 9.99908C49.4455 8.33108 50.6402 7.57598 51.7559 7.57598C52.8604 7.57598 54.055 8.33108 54.055 9.99908C54.055 11.6671 52.8604 12.4109 51.7559 12.4109C50.6402 12.4109 49.4455 11.6671 49.4455 9.99908ZM47.5972 10.0103C47.5972 12.5349 49.5019 14.1691 51.7559 14.1691C53.9987 14.1691 55.9033 12.5349 55.9033 10.0103C55.9033 7.47455 53.9987 5.84037 51.7559 5.84037C49.5019 5.84037 47.5972 7.47455 47.5972 10.0103ZM62.6612 7.97044C62.4921 7.03501 61.737 5.84037 59.7422 5.84037C58.2094 5.84037 56.8795 6.89977 56.8795 8.40998C56.8795 9.59335 57.7023 10.495 59.0547 10.7542L60.1479 10.957C60.6776 11.0585 61.0044 11.3515 61.0044 11.7572C61.0044 12.2531 60.5762 12.5912 59.8774 12.5912C58.7842 12.5912 58.2883 11.9488 58.2207 11.2163L56.5865 11.6107C56.6992 12.7377 57.6459 14.1691 59.8549 14.1691C61.7595 14.1691 62.8077 12.8955 62.8077 11.6445C62.8077 10.5062 62.0187 9.52573 60.4973 9.24397L59.4266 9.04111C58.8744 8.93968 58.6377 8.65792 58.6377 8.27473C58.6377 7.8352 59.066 7.4182 59.7309 7.4182C60.7001 7.4182 61.0044 8.04933 61.0608 8.42125L62.6612 7.97044ZM30.6875 26.9406C30.6875 27.5605 31.2059 28.1014 31.837 28.1014C32.4682 28.1014 32.9979 27.5605 32.9979 26.9406C32.9979 26.3095 32.4682 25.791 31.837 25.791C31.2059 25.791 30.6875 26.3095 30.6875 26.9406ZM37.8 28.1691C40.2794 28.1691 41.3388 26.4785 41.598 25.374L39.8962 24.8894C39.7384 25.4642 39.1862 26.3884 37.8 26.3884C36.6053 26.3884 35.5008 25.5206 35.5008 24.0216C35.5008 22.3424 36.7067 21.576 37.7774 21.576C39.1862 21.576 39.6933 22.5114 39.8173 23.0636L41.4966 22.5339C41.2374 21.3844 40.178 19.8404 37.7774 19.8404C35.5459 19.8404 33.6525 21.5309 33.6525 24.0216C33.6525 26.5123 35.5008 28.1691 37.8 28.1691ZM44.1406 23.9991C44.1406 22.3311 45.3352 21.576 46.451 21.576C47.5555 21.576 48.7501 22.3311 48.7501 23.9991C48.7501 25.6671 47.5555 26.4109 46.451 26.4109C45.3352 26.4109 44.1406 25.6671 44.1406 23.9991ZM42.2923 24.0103C42.2923 26.5349 44.1969 28.1691 46.451 28.1691C48.6938 28.1691 50.5984 26.5349 50.5984 24.0103C50.5984 21.4745 48.6938 19.8404 46.451 19.8404C44.1969 19.8404 42.2923 21.4745 42.2923 24.0103ZM60.9174 28V20.0094H58.4717L56.3867 25.4079L54.189 20.0094H51.8674V28H53.5579V22.7706L55.6429 28H57.0855L59.1705 22.703V28H60.9174Z" fill="white"/>
<path fill-rule="evenodd" clip-rule="evenodd" d="M26.8999 16.0677C26.8999 26.3131 19.9492 32 11.2835 32H0.281755C0.126146 32 0 31.8739 0 31.7182V0.281755C0 0.126146 0.126146 0 0.281756 0H11.3286C20.0395 0 26.8999 5.77715 26.8999 16.0677ZM18.0513 10.3761L13.0652 12.1904C13.003 12.213 12.9348 12.213 12.8725 12.1904L7.8864 10.3761C7.70264 10.3093 7.50831 10.4453 7.50831 10.6409L7.50831 18.9929C7.50831 19.1026 7.57198 19.2024 7.6715 19.2485L12.8503 21.6507C12.9255 21.6856 13.0122 21.6856 13.0874 21.6507L18.2662 19.2485C18.3658 19.2024 18.4294 19.1026 18.4294 18.9929V10.6409C18.4294 10.4453 18.2351 10.3093 18.0513 10.3761Z" fill="white"/>
</svg>
