<svg width="491" height="239" viewBox="0 0 491 239" fill="none" xmlns="http://www.w3.org/2000/svg">
<path d="M221.6 46H240.56C245.52 46 250.08 47.0133 254.24 49.04C258.453 51.0667 261.84 54.1867 264.4 58.4C266.96 62.56 268.24 67.76 268.24 74C268.24 80.24 266.96 85.4667 264.4 89.68C261.84 93.84 258.453 96.9333 254.24 98.96C250.08 100.987 245.52 102 240.56 102H221.6V46ZM238.8 89.84C243.173 89.84 246.8 88.6133 249.68 86.16C252.56 83.7067 254 79.6533 254 74C254 68.3467 252.56 64.2933 249.68 61.84C246.8 59.3867 243.173 58.16 238.8 58.16H235.52V89.84H238.8ZM301.633 102.64C296.566 102.64 291.953 101.547 287.793 99.36C283.686 97.12 280.406 93.84 277.953 89.52C275.553 85.2 274.353 80.0267 274.353 74C274.353 67.9733 275.579 62.8 278.033 58.48C280.539 54.16 283.846 50.9067 287.953 48.72C292.113 46.48 296.673 45.36 301.633 45.36C308.033 45.36 313.339 46.88 317.553 49.92C321.766 52.96 324.539 57.1733 325.873 62.56L313.073 66.24C310.939 60.4267 307.073 57.52 301.473 57.52C299.126 57.52 296.966 58.16 294.993 59.44C293.073 60.6667 291.526 62.5333 290.353 65.04C289.179 67.5467 288.593 70.5333 288.593 74C288.593 77.52 289.179 80.5333 290.353 83.04C291.526 85.4933 293.073 87.36 294.993 88.64C296.966 89.8667 299.126 90.48 301.473 90.48C307.073 90.48 310.939 87.5733 313.073 81.76L325.713 85.28C324.113 90.9867 321.233 95.3067 317.073 98.24C312.913 101.173 307.766 102.64 301.633 102.64ZM334.178 46H348.418V65.52H366.978V46H381.218V102H366.978V78.64H348.418V102H334.178V46ZM417.341 102.64C412.435 102.64 407.875 101.573 403.661 99.44C399.501 97.3067 396.141 94.08 393.581 89.76C391.075 85.44 389.821 80.1867 389.821 74C389.821 67.8133 391.075 62.56 393.581 58.24C396.141 53.92 399.501 50.6933 403.661 48.56C407.875 46.4267 412.435 45.36 417.341 45.36C422.248 45.36 426.781 46.4267 430.941 48.56C435.155 50.6933 438.515 53.92 441.021 58.24C443.581 62.56 444.861 67.8133 444.861 74C444.861 80.1867 443.581 85.44 441.021 89.76C438.515 94.08 435.155 97.3067 430.941 99.44C426.781 101.573 422.248 102.64 417.341 102.64ZM417.341 90.48C421.181 90.48 424.355 89.0933 426.861 86.32C429.368 83.4933 430.621 79.3867 430.621 74C430.621 68.6133 429.368 64.5333 426.861 61.76C424.355 58.9333 421.181 57.52 417.341 57.52C413.501 57.52 410.328 58.9333 407.821 61.76C405.315 64.5333 404.061 68.6133 404.061 74C404.061 79.3867 405.315 83.4933 407.821 86.32C410.328 89.0933 413.501 90.48 417.341 90.48ZM469.498 102.64C464.058 102.64 459.551 101.173 455.978 98.24C452.404 95.2533 450.138 91.4933 449.178 86.96L460.218 80C461.018 83.1467 462.191 85.68 463.738 87.6C465.284 89.52 467.258 90.48 469.658 90.48C471.098 90.48 472.271 90.1333 473.178 89.44C474.084 88.6933 474.538 87.5733 474.538 86.08C474.538 84.8 474.164 83.68 473.418 82.72C472.671 81.7067 471.711 80.8533 470.538 80.16C469.364 79.4667 467.711 78.6133 465.578 77.6L463.258 76.48C460.058 74.88 457.444 72.8533 455.418 70.4C453.391 67.9467 452.378 64.7467 452.378 60.8C452.378 57.92 453.044 55.3067 454.378 52.96C455.764 50.6133 457.738 48.7733 460.298 47.44C462.911 46.0533 465.924 45.36 469.338 45.36C473.604 45.36 477.071 46.2133 479.738 47.92C482.458 49.5733 484.564 52.2133 486.058 55.84L475.498 62.8C474.804 60.8267 473.951 59.4133 472.938 58.56C471.978 57.6533 470.778 57.2 469.338 57.2C468.218 57.2 467.311 57.52 466.618 58.16C465.978 58.7467 465.658 59.5467 465.658 60.56C465.658 62 466.431 63.28 467.978 64.4C469.578 65.4667 472.058 66.8 475.418 68.4L478.218 69.76C481.364 71.3067 483.871 73.28 485.738 75.68C487.604 78.0267 488.538 81.0133 488.538 84.64C488.538 88.32 487.738 91.52 486.138 94.24C484.538 96.96 482.298 99.04 479.418 100.48C476.538 101.92 473.231 102.64 469.498 102.64ZM227.6 182.64C225.467 182.64 223.68 181.947 222.24 180.56C220.853 179.12 220.16 177.333 220.16 175.2C220.16 173.067 220.853 171.307 222.24 169.92C223.68 168.48 225.467 167.76 227.6 167.76C229.733 167.76 231.493 168.48 232.88 169.92C234.32 171.307 235.04 173.067 235.04 175.2C235.04 177.333 234.32 179.12 232.88 180.56C231.493 181.947 229.733 182.64 227.6 182.64ZM267.101 182.64C262.035 182.64 257.421 181.547 253.261 179.36C249.155 177.12 245.875 173.84 243.421 169.52C241.021 165.2 239.821 160.027 239.821 154C239.821 147.973 241.048 142.8 243.501 138.48C246.008 134.16 249.315 130.907 253.421 128.72C257.581 126.48 262.141 125.36 267.101 125.36C273.501 125.36 278.808 126.88 283.021 129.92C287.235 132.96 290.008 137.173 291.341 142.56L278.541 146.24C276.408 140.427 272.541 137.52 266.941 137.52C264.595 137.52 262.435 138.16 260.461 139.44C258.541 140.667 256.995 142.533 255.821 145.04C254.648 147.547 254.061 150.533 254.061 154C254.061 157.52 254.648 160.533 255.821 163.04C256.995 165.493 258.541 167.36 260.461 168.64C262.435 169.867 264.595 170.48 266.941 170.48C272.541 170.48 276.408 167.573 278.541 161.76L291.181 165.28C289.581 170.987 286.701 175.307 282.541 178.24C278.381 181.173 273.235 182.64 267.101 182.64ZM324.607 182.64C319.7 182.64 315.14 181.573 310.927 179.44C306.767 177.307 303.407 174.08 300.847 169.76C298.34 165.44 297.087 160.187 297.087 154C297.087 147.813 298.34 142.56 300.847 138.24C303.407 133.92 306.767 130.693 310.927 128.56C315.14 126.427 319.7 125.36 324.607 125.36C329.514 125.36 334.047 126.427 338.207 128.56C342.42 130.693 345.78 133.92 348.287 138.24C350.847 142.56 352.127 147.813 352.127 154C352.127 160.187 350.847 165.44 348.287 169.76C345.78 174.08 342.42 177.307 338.207 179.44C334.047 181.573 329.514 182.64 324.607 182.64ZM324.607 170.48C328.447 170.48 331.62 169.093 334.127 166.32C336.634 163.493 337.887 159.387 337.887 154C337.887 148.613 336.634 144.533 334.127 141.76C331.62 138.933 328.447 137.52 324.607 137.52C320.767 137.52 317.594 138.933 315.087 141.76C312.58 144.533 311.327 148.613 311.327 154C311.327 159.387 312.58 163.493 315.087 166.32C317.594 169.093 320.767 170.48 324.607 170.48ZM360.741 126H375.141L387.541 158L399.941 126H414.341V182H401.541V152.4L392.101 176.88H382.981L373.541 152.4V182H360.741V126Z" fill="#FFFFFE"/>
<mask id="path-2-outside-1" maskUnits="userSpaceOnUse" x="0" y="0" width="201" height="239" fill="black">
<rect fill="white" width="201" height="239"/>
<path fill-rule="evenodd" clip-rule="evenodd" d="M199.048 119.7C199.048 194.75 148.133 236.408 84.6544 236.408H2V2H84.985C148.794 2 199.048 44.3191 199.048 119.7ZM53 159L67.5543 119L53 79H118.446L133 119L118.446 159H53Z"/>
</mask>
<path fill-rule="evenodd" clip-rule="evenodd" d="M199.048 119.7C199.048 194.75 148.133 236.408 84.6544 236.408H2V2H84.985C148.794 2 199.048 44.3191 199.048 119.7ZM53 159L67.5543 119L53 79H118.446L133 119L118.446 159H53Z" fill="white"/>
<path d="M2 236.408H0.346912V238.061H2V236.408ZM2 2V0.346912H0.346912V2H2ZM67.5543 119L69.1078 119.565L69.3135 119L69.1078 118.435L67.5543 119ZM53 159L51.4465 158.435L50.6394 160.653H53V159ZM53 79V77.3469H50.6394L51.4465 79.5652L53 79ZM118.446 79L119.999 78.4348L119.603 77.3469H118.446V79ZM133 119L134.553 119.565L134.759 119L134.553 118.435L133 119ZM118.446 159V160.653H119.603L119.999 159.565L118.446 159ZM84.6544 238.061C116.754 238.061 145.783 227.525 166.799 207.391C187.829 187.245 200.701 157.617 200.701 119.7H197.395C197.395 156.833 184.81 185.559 164.512 205.004C144.201 224.462 116.034 234.755 84.6544 234.755V238.061ZM2 238.061H84.6544V234.755H2V238.061ZM0.346912 2V236.408H3.65309V2H0.346912ZM84.985 0.346912H2V3.65309H84.985V0.346912ZM200.701 119.7C200.701 81.6272 188 51.7532 167.098 31.3978C146.206 11.0524 117.256 0.346912 84.985 0.346912V3.65309C116.524 3.65309 144.604 14.1071 164.792 33.7664C184.969 53.4158 197.395 82.3917 197.395 119.7H200.701ZM66.0009 118.435L51.4465 158.435L54.5535 159.565L69.1078 119.565L66.0009 118.435ZM51.4465 79.5652L66.0009 119.565L69.1078 118.435L54.5535 78.4348L51.4465 79.5652ZM118.446 77.3469H53V80.6531H118.446V77.3469ZM134.553 118.435L119.999 78.4348L116.892 79.5652L131.447 119.565L134.553 118.435ZM119.999 159.565L134.553 119.565L131.447 118.435L116.892 158.435L119.999 159.565ZM53 160.653H118.446V157.347H53V160.653Z" fill="black" mask="url(#path-2-outside-1)"/>
</svg>
