<svg width="489" height="235" viewBox="0 0 489 235" fill="none" xmlns="http://www.w3.org/2000/svg">
<path d="M219.6 52H238.56C243.52 52 248.08 53.0133 252.24 55.04C256.453 57.0667 259.84 60.1867 262.4 64.4C264.96 68.56 266.24 73.76 266.24 80C266.24 86.24 264.96 91.4667 262.4 95.68C259.84 99.84 256.453 102.933 252.24 104.96C248.08 106.987 243.52 108 238.56 108H219.6V52ZM236.8 95.84C241.173 95.84 244.8 94.6133 247.68 92.16C250.56 89.7067 252 85.6533 252 80C252 74.3467 250.56 70.2933 247.68 67.84C244.8 65.3867 241.173 64.16 236.8 64.16H233.52V95.84H236.8ZM299.633 108.64C294.566 108.64 289.953 107.547 285.793 105.36C281.686 103.12 278.406 99.84 275.953 95.52C273.553 91.2 272.353 86.0267 272.353 80C272.353 73.9733 273.579 68.8 276.033 64.48C278.539 60.16 281.846 56.9067 285.953 54.72C290.113 52.48 294.673 51.36 299.633 51.36C306.033 51.36 311.339 52.88 315.553 55.92C319.766 58.96 322.539 63.1733 323.873 68.56L311.073 72.24C308.939 66.4267 305.073 63.52 299.473 63.52C297.126 63.52 294.966 64.16 292.993 65.44C291.073 66.6667 289.526 68.5333 288.353 71.04C287.179 73.5467 286.593 76.5333 286.593 80C286.593 83.52 287.179 86.5333 288.353 89.04C289.526 91.4933 291.073 93.36 292.993 94.64C294.966 95.8667 297.126 96.48 299.473 96.48C305.073 96.48 308.939 93.5733 311.073 87.76L323.713 91.28C322.113 96.9867 319.233 101.307 315.073 104.24C310.913 107.173 305.766 108.64 299.633 108.64ZM332.178 52H346.418V71.52H364.978V52H379.218V108H364.978V84.64H346.418V108H332.178V52ZM415.341 108.64C410.435 108.64 405.875 107.573 401.661 105.44C397.501 103.307 394.141 100.08 391.581 95.76C389.075 91.44 387.821 86.1867 387.821 80C387.821 73.8133 389.075 68.56 391.581 64.24C394.141 59.92 397.501 56.6933 401.661 54.56C405.875 52.4267 410.435 51.36 415.341 51.36C420.248 51.36 424.781 52.4267 428.941 54.56C433.155 56.6933 436.515 59.92 439.021 64.24C441.581 68.56 442.861 73.8133 442.861 80C442.861 86.1867 441.581 91.44 439.021 95.76C436.515 100.08 433.155 103.307 428.941 105.44C424.781 107.573 420.248 108.64 415.341 108.64ZM415.341 96.48C419.181 96.48 422.355 95.0933 424.861 92.32C427.368 89.4933 428.621 85.3867 428.621 80C428.621 74.6133 427.368 70.5333 424.861 67.76C422.355 64.9333 419.181 63.52 415.341 63.52C411.501 63.52 408.328 64.9333 405.821 67.76C403.315 70.5333 402.061 74.6133 402.061 80C402.061 85.3867 403.315 89.4933 405.821 92.32C408.328 95.0933 411.501 96.48 415.341 96.48ZM467.498 108.64C462.058 108.64 457.551 107.173 453.978 104.24C450.404 101.253 448.138 97.4933 447.178 92.96L458.218 86C459.018 89.1467 460.191 91.68 461.738 93.6C463.284 95.52 465.258 96.48 467.658 96.48C469.098 96.48 470.271 96.1333 471.178 95.44C472.084 94.6933 472.538 93.5733 472.538 92.08C472.538 90.8 472.164 89.68 471.418 88.72C470.671 87.7067 469.711 86.8533 468.538 86.16C467.364 85.4667 465.711 84.6133 463.578 83.6L461.258 82.48C458.058 80.88 455.444 78.8533 453.418 76.4C451.391 73.9467 450.378 70.7467 450.378 66.8C450.378 63.92 451.044 61.3067 452.378 58.96C453.764 56.6133 455.738 54.7733 458.298 53.44C460.911 52.0533 463.924 51.36 467.338 51.36C471.604 51.36 475.071 52.2133 477.738 53.92C480.458 55.5733 482.564 58.2133 484.058 61.84L473.498 68.8C472.804 66.8267 471.951 65.4133 470.938 64.56C469.978 63.6533 468.778 63.2 467.338 63.2C466.218 63.2 465.311 63.52 464.618 64.16C463.978 64.7467 463.658 65.5467 463.658 66.56C463.658 68 464.431 69.28 465.978 70.4C467.578 71.4667 470.058 72.8 473.418 74.4L476.218 75.76C479.364 77.3067 481.871 79.28 483.738 81.68C485.604 84.0267 486.538 87.0133 486.538 90.64C486.538 94.32 485.738 97.52 484.138 100.24C482.538 102.96 480.298 105.04 477.418 106.48C474.538 107.92 471.231 108.64 467.498 108.64ZM225.6 188.64C223.467 188.64 221.68 187.947 220.24 186.56C218.853 185.12 218.16 183.333 218.16 181.2C218.16 179.067 218.853 177.307 220.24 175.92C221.68 174.48 223.467 173.76 225.6 173.76C227.733 173.76 229.493 174.48 230.88 175.92C232.32 177.307 233.04 179.067 233.04 181.2C233.04 183.333 232.32 185.12 230.88 186.56C229.493 187.947 227.733 188.64 225.6 188.64ZM265.101 188.64C260.035 188.64 255.421 187.547 251.261 185.36C247.155 183.12 243.875 179.84 241.421 175.52C239.021 171.2 237.821 166.027 237.821 160C237.821 153.973 239.048 148.8 241.501 144.48C244.008 140.16 247.315 136.907 251.421 134.72C255.581 132.48 260.141 131.36 265.101 131.36C271.501 131.36 276.808 132.88 281.021 135.92C285.235 138.96 288.008 143.173 289.341 148.56L276.541 152.24C274.408 146.427 270.541 143.52 264.941 143.52C262.595 143.52 260.435 144.16 258.461 145.44C256.541 146.667 254.995 148.533 253.821 151.04C252.648 153.547 252.061 156.533 252.061 160C252.061 163.52 252.648 166.533 253.821 169.04C254.995 171.493 256.541 173.36 258.461 174.64C260.435 175.867 262.595 176.48 264.941 176.48C270.541 176.48 274.408 173.573 276.541 167.76L289.181 171.28C287.581 176.987 284.701 181.307 280.541 184.24C276.381 187.173 271.235 188.64 265.101 188.64ZM322.607 188.64C317.7 188.64 313.14 187.573 308.927 185.44C304.767 183.307 301.407 180.08 298.847 175.76C296.34 171.44 295.087 166.187 295.087 160C295.087 153.813 296.34 148.56 298.847 144.24C301.407 139.92 304.767 136.693 308.927 134.56C313.14 132.427 317.7 131.36 322.607 131.36C327.514 131.36 332.047 132.427 336.207 134.56C340.42 136.693 343.78 139.92 346.287 144.24C348.847 148.56 350.127 153.813 350.127 160C350.127 166.187 348.847 171.44 346.287 175.76C343.78 180.08 340.42 183.307 336.207 185.44C332.047 187.573 327.514 188.64 322.607 188.64ZM322.607 176.48C326.447 176.48 329.62 175.093 332.127 172.32C334.634 169.493 335.887 165.387 335.887 160C335.887 154.613 334.634 150.533 332.127 147.76C329.62 144.933 326.447 143.52 322.607 143.52C318.767 143.52 315.594 144.933 313.087 147.76C310.58 150.533 309.327 154.613 309.327 160C309.327 165.387 310.58 169.493 313.087 172.32C315.594 175.093 318.767 176.48 322.607 176.48ZM358.741 132H373.141L385.541 164L397.941 132H412.341V188H399.541V158.4L390.101 182.88H380.981L371.541 158.4V188H358.741V132Z" fill="black"/>
<path fill-rule="evenodd" clip-rule="evenodd" d="M197.048 117.7C197.048 192.75 146.133 234.408 82.6544 234.408H0V0H82.985C146.794 0 197.048 42.3191 197.048 117.7ZM51 77L91 91.5543L131 77V142.446L91 161L51 142.446V77Z" fill="black"/>
</svg>
