<svg width="433" height="235" viewBox="0 0 433 235" fill="none" xmlns="http://www.w3.org/2000/svg">
<path d="M243.32 104.64C238.253 104.64 233.64 103.547 229.48 101.36C225.373 99.12 222.093 95.84 219.64 91.52C217.24 87.2 216.04 82.0267 216.04 76C216.04 69.9733 217.267 64.8 219.72 60.48C222.227 56.16 225.533 52.9067 229.64 50.72C233.8 48.48 238.36 47.36 243.32 47.36C249.72 47.36 255.027 48.88 259.24 51.92C263.453 54.96 266.227 59.1733 267.56 64.56L254.76 68.24C252.627 62.4267 248.76 59.52 243.16 59.52C240.813 59.52 238.653 60.16 236.68 61.44C234.76 62.6667 233.213 64.5333 232.04 67.04C230.867 69.5467 230.28 72.5333 230.28 76C230.28 79.52 230.867 82.5333 232.04 85.04C233.213 87.4933 234.76 89.36 236.68 90.64C238.653 91.8667 240.813 92.48 243.16 92.48C248.76 92.48 252.627 89.5733 254.76 83.76L267.4 87.28C265.8 92.9867 262.92 97.3067 258.76 100.24C254.6 103.173 249.453 104.64 243.32 104.64ZM275.866 48H290.106V67.52H308.666V48H322.906V104H308.666V80.64H290.106V104H275.866V48ZM359.029 104.64C354.122 104.64 349.562 103.573 345.349 101.44C341.189 99.3067 337.829 96.08 335.269 91.76C332.762 87.44 331.509 82.1867 331.509 76C331.509 69.8133 332.762 64.56 335.269 60.24C337.829 55.92 341.189 52.6933 345.349 50.56C349.562 48.4267 354.122 47.36 359.029 47.36C363.935 47.36 368.469 48.4267 372.629 50.56C376.842 52.6933 380.202 55.92 382.709 60.24C385.269 64.56 386.549 69.8133 386.549 76C386.549 82.1867 385.269 87.44 382.709 91.76C380.202 96.08 376.842 99.3067 372.629 101.44C368.469 103.573 363.935 104.64 359.029 104.64ZM359.029 92.48C362.869 92.48 366.042 91.0933 368.549 88.32C371.055 85.4933 372.309 81.3867 372.309 76C372.309 70.6133 371.055 66.5333 368.549 63.76C366.042 60.9333 362.869 59.52 359.029 59.52C355.189 59.52 352.015 60.9333 349.509 63.76C347.002 66.5333 345.749 70.6133 345.749 76C345.749 81.3867 347.002 85.4933 349.509 88.32C352.015 91.0933 355.189 92.48 359.029 92.48ZM411.185 104.64C405.745 104.64 401.238 103.173 397.665 100.24C394.092 97.2533 391.825 93.4933 390.865 88.96L401.905 82C402.705 85.1467 403.878 87.68 405.425 89.6C406.972 91.52 408.945 92.48 411.345 92.48C412.785 92.48 413.958 92.1333 414.865 91.44C415.772 90.6933 416.225 89.5733 416.225 88.08C416.225 86.8 415.852 85.68 415.105 84.72C414.358 83.7067 413.398 82.8533 412.225 82.16C411.052 81.4667 409.398 80.6133 407.265 79.6L404.945 78.48C401.745 76.88 399.132 74.8533 397.105 72.4C395.078 69.9467 394.065 66.7467 394.065 62.8C394.065 59.92 394.732 57.3067 396.065 54.96C397.452 52.6133 399.425 50.7733 401.985 49.44C404.598 48.0533 407.612 47.36 411.025 47.36C415.292 47.36 418.758 48.2133 421.425 49.92C424.145 51.5733 426.252 54.2133 427.745 57.84L417.185 64.8C416.492 62.8267 415.638 61.4133 414.625 60.56C413.665 59.6533 412.465 59.2 411.025 59.2C409.905 59.2 408.998 59.52 408.305 60.16C407.665 60.7467 407.345 61.5467 407.345 62.56C407.345 64 408.118 65.28 409.665 66.4C411.265 67.4667 413.745 68.8 417.105 70.4L419.905 71.76C423.052 73.3067 425.558 75.28 427.425 77.68C429.292 80.0267 430.225 83.0133 430.225 86.64C430.225 90.32 429.425 93.52 427.825 96.24C426.225 98.96 423.985 101.04 421.105 102.48C418.225 103.92 414.918 104.64 411.185 104.64ZM224.6 200.64C222.467 200.64 220.68 199.947 219.24 198.56C217.853 197.12 217.16 195.333 217.16 193.2C217.16 191.067 217.853 189.307 219.24 187.92C220.68 186.48 222.467 185.76 224.6 185.76C226.733 185.76 228.493 186.48 229.88 187.92C231.32 189.307 232.04 191.067 232.04 193.2C232.04 195.333 231.32 197.12 229.88 198.56C228.493 199.947 226.733 200.64 224.6 200.64ZM264.101 200.64C259.035 200.64 254.421 199.547 250.261 197.36C246.155 195.12 242.875 191.84 240.421 187.52C238.021 183.2 236.821 178.027 236.821 172C236.821 165.973 238.048 160.8 240.501 156.48C243.008 152.16 246.315 148.907 250.421 146.72C254.581 144.48 259.141 143.36 264.101 143.36C270.501 143.36 275.808 144.88 280.021 147.92C284.235 150.96 287.008 155.173 288.341 160.56L275.541 164.24C273.408 158.427 269.541 155.52 263.941 155.52C261.595 155.52 259.435 156.16 257.461 157.44C255.541 158.667 253.995 160.533 252.821 163.04C251.648 165.547 251.061 168.533 251.061 172C251.061 175.52 251.648 178.533 252.821 181.04C253.995 183.493 255.541 185.36 257.461 186.64C259.435 187.867 261.595 188.48 263.941 188.48C269.541 188.48 273.408 185.573 275.541 179.76L288.181 183.28C286.581 188.987 283.701 193.307 279.541 196.24C275.381 199.173 270.235 200.64 264.101 200.64ZM321.607 200.64C316.7 200.64 312.14 199.573 307.927 197.44C303.767 195.307 300.407 192.08 297.847 187.76C295.34 183.44 294.087 178.187 294.087 172C294.087 165.813 295.34 160.56 297.847 156.24C300.407 151.92 303.767 148.693 307.927 146.56C312.14 144.427 316.7 143.36 321.607 143.36C326.514 143.36 331.047 144.427 335.207 146.56C339.42 148.693 342.78 151.92 345.287 156.24C347.847 160.56 349.127 165.813 349.127 172C349.127 178.187 347.847 183.44 345.287 187.76C342.78 192.08 339.42 195.307 335.207 197.44C331.047 199.573 326.514 200.64 321.607 200.64ZM321.607 188.48C325.447 188.48 328.62 187.093 331.127 184.32C333.634 181.493 334.887 177.387 334.887 172C334.887 166.613 333.634 162.533 331.127 159.76C328.62 156.933 325.447 155.52 321.607 155.52C317.767 155.52 314.594 156.933 312.087 159.76C309.58 162.533 308.327 166.613 308.327 172C308.327 177.387 309.58 181.493 312.087 184.32C314.594 187.093 317.767 188.48 321.607 188.48ZM357.741 144H372.141L384.541 176L396.941 144H411.341V200H398.541V170.4L389.101 194.88H379.981L370.541 170.4V200H357.741V144Z" fill="white"/>
<path d="M82.6544 234.408C146.133 234.408 197.048 192.75 197.048 117.7C197.048 42.3191 146.794 0 82.985 0H2C0.895429 0 0 0.895431 0 2V232.408C0 233.512 0.895431 234.408 2 234.408H82.6544Z" fill="white"/>
<path d="M95.6839 89.3055L132.316 75.9765C133.621 75.5019 135 76.4679 135 77.856L135 139.169C135 139.947 134.548 140.655 133.842 140.983L95.8416 158.61C95.3078 158.857 94.6922 158.857 94.1584 158.61L56.1584 140.983C55.452 140.655 55 139.947 55 139.169L55 77.856C55 76.4679 56.3794 75.5019 57.6839 75.9765L94.3161 89.3055C94.7579 89.4662 95.2421 89.4662 95.6839 89.3055Z" fill="black"/>
</svg>
