<svg width="201" height="389" viewBox="0 0 201 389" fill="none" xmlns="http://www.w3.org/2000/svg">
<path d="M14.534 297.522V275.6H19.441C25.2546 275.6 30.0015 279.014 30.0015 286.588C30.0015 294.161 25.2546 297.522 19.441 297.522H14.534ZM19.761 305.469C31.1749 305.469 38.802 298.268 38.802 286.588C38.802 274.907 31.1749 267.653 19.8143 267.653H6.10689V305.469H19.761ZM62.2479 306.269C73.9819 306.269 78.9955 298.268 80.2222 293.041L72.1684 290.748C71.4217 293.468 68.8082 297.842 62.2479 297.842C56.5942 297.842 51.3673 293.735 51.3673 286.641C51.3673 278.694 57.0743 275.067 62.1412 275.067C68.8082 275.067 71.2084 279.494 71.7951 282.107L79.7422 279.601C78.5154 274.16 73.5018 266.853 62.1412 266.853C51.5806 266.853 42.6201 274.854 42.6201 286.641C42.6201 298.428 51.3673 306.269 62.2479 306.269ZM118.009 305.469V267.653H109.528V282.481H94.4342V267.653H86.0071V305.469H94.4342V290.428H109.528V305.469H118.009ZM132.726 286.534C132.726 278.641 138.38 275.067 143.66 275.067C148.887 275.067 154.54 278.641 154.54 286.534C154.54 294.428 148.887 297.948 143.66 297.948C138.38 297.948 132.726 294.428 132.726 286.534ZM123.979 286.588C123.979 298.535 132.993 306.269 143.66 306.269C154.274 306.269 163.288 298.535 163.288 286.588C163.288 274.587 154.274 266.853 143.66 266.853C132.993 266.853 123.979 274.587 123.979 286.588ZM195.269 276.934C194.469 272.507 190.895 266.853 181.455 266.853C174.201 266.853 167.907 271.867 167.907 279.014C167.907 284.614 171.801 288.881 178.201 290.108L183.375 291.068C185.882 291.548 187.428 292.935 187.428 294.855C187.428 297.202 185.402 298.802 182.095 298.802C176.921 298.802 174.574 295.762 174.254 292.295L166.521 294.161C167.054 299.495 171.534 306.269 181.988 306.269C191.002 306.269 195.962 300.242 195.962 294.321C195.962 288.935 192.229 284.294 185.028 282.961L179.961 282.001C177.348 281.521 176.228 280.187 176.228 278.374C176.228 276.294 178.255 274.32 181.401 274.32C185.988 274.32 187.428 277.307 187.695 279.067L195.269 276.934ZM5.25351 367.455C5.25351 370.389 7.70698 372.949 10.6938 372.949C13.6806 372.949 16.1874 370.389 16.1874 367.455C16.1874 364.468 13.6806 362.015 10.6938 362.015C7.70698 362.015 5.25351 364.468 5.25351 367.455ZM38.9133 373.269C50.6472 373.269 55.6609 365.268 56.8876 360.041L48.8338 357.748C48.0871 360.468 45.4736 364.842 38.9133 364.842C33.2596 364.842 28.0327 360.735 28.0327 353.641C28.0327 345.694 33.7397 342.067 38.8066 342.067C45.4736 342.067 47.8738 346.494 48.4605 349.107L56.4076 346.601C55.1808 341.16 50.1672 333.853 38.8066 333.853C28.246 333.853 19.2855 341.854 19.2855 353.641C19.2855 365.428 28.0327 373.269 38.9133 373.269ZM68.9203 353.534C68.9203 345.641 74.574 342.067 79.8543 342.067C85.0812 342.067 90.7349 345.641 90.7349 353.534C90.7349 361.428 85.0812 364.948 79.8543 364.948C74.574 364.948 68.9203 361.428 68.9203 353.534ZM60.1732 353.588C60.1732 365.535 69.187 373.269 79.8543 373.269C90.4682 373.269 99.482 365.535 99.482 353.588C99.482 341.587 90.4682 333.853 79.8543 333.853C69.187 333.853 60.1732 341.587 60.1732 353.588ZM148.316 372.469V334.653H136.742L126.875 360.201L116.475 334.653H105.487V372.469H113.488V347.721L123.355 372.469H130.182L140.049 347.401V372.469H148.316Z" fill="url(#paint0_linear)"/>
<mask id="path-2-outside-1" maskUnits="userSpaceOnUse" x="0" y="0" width="201" height="239" fill="black">
<rect fill="white" width="201" height="239"/>
<path fill-rule="evenodd" clip-rule="evenodd" d="M199.048 119.7C199.048 194.75 148.133 236.408 84.6544 236.408H2V166.945L18.5 180L58.5 148.352V60L18.5 91.6484L2 78.5934V2H84.985C148.794 2 199.048 44.3191 199.048 119.7Z"/>
</mask>
<path fill-rule="evenodd" clip-rule="evenodd" d="M199.048 119.7C199.048 194.75 148.133 236.408 84.6544 236.408H2V166.945L18.5 180L58.5 148.352V60L18.5 91.6484L2 78.5934V2H84.985C148.794 2 199.048 44.3191 199.048 119.7Z" fill="url(#paint1_linear)"/>
<path d="M2 236.408H0.346912V238.061H2V236.408ZM2 166.945L3.02571 165.649L0.346912 163.529V166.945H2ZM18.5 180L17.4743 181.296L18.5 182.108L19.5257 181.296L18.5 180ZM58.5 148.352L59.5257 149.648L60.1531 149.152V148.352H58.5ZM58.5 60H60.1531V56.5841L57.4743 58.7036L58.5 60ZM18.5 91.6484L17.4743 92.9447L18.5 93.7563L19.5257 92.9447L18.5 91.6484ZM2 78.5934H0.346912V79.3934L0.974288 79.8898L2 78.5934ZM2 2V0.346912H0.346912V2H2ZM84.6544 238.061C116.754 238.061 145.783 227.525 166.799 207.391C187.829 187.245 200.701 157.617 200.701 119.7H197.395C197.395 156.833 184.81 185.559 164.512 205.004C144.201 224.462 116.034 234.755 84.6544 234.755V238.061ZM2 238.061H84.6544V234.755H2V238.061ZM0.346912 166.945V236.408H3.65309V166.945H0.346912ZM0.974288 168.241L17.4743 181.296L19.5257 178.704L3.02571 165.649L0.974288 168.241ZM19.5257 181.296L59.5257 149.648L57.4743 147.055L17.4743 178.704L19.5257 181.296ZM60.1531 148.352V60H56.8469V148.352H60.1531ZM57.4743 58.7036L17.4743 90.352L19.5257 92.9447L59.5257 61.2964L57.4743 58.7036ZM19.5257 90.352L3.02571 77.297L0.974288 79.8898L17.4743 92.9447L19.5257 90.352ZM0.346912 2V78.5934H3.65309V2H0.346912ZM84.985 0.346912H2V3.65309H84.985V0.346912ZM200.701 119.7C200.701 81.6272 188 51.7532 167.098 31.3978C146.206 11.0524 117.256 0.346912 84.985 0.346912V3.65309C116.524 3.65309 144.604 14.1071 164.792 33.7664C184.969 53.4158 197.395 82.3917 197.395 119.7H200.701Z" fill="black" mask="url(#path-2-outside-1)"/>
<defs>
<linearGradient id="paint0_linear" x1="244.517" y1="346.619" x2="110.407" y2="209.533" gradientUnits="userSpaceOnUse">
<stop stop-color="#E5E4E2" stop-opacity="0.7"/>
<stop offset="1" stop-color="#FFFFFE"/>
</linearGradient>
<linearGradient id="paint1_linear" x1="199.625" y1="119.535" x2="-70.126" y2="119.535" gradientUnits="userSpaceOnUse">
<stop stop-color="white"/>
<stop offset="1"/>
</linearGradient>
</defs>
</svg>
