<svg width="433" height="235" viewBox="0 0 433 235" fill="none" xmlns="http://www.w3.org/2000/svg">
<path d="M243.32 108.64C238.253 108.64 233.64 107.547 229.48 105.36C225.373 103.12 222.093 99.84 219.64 95.52C217.24 91.2 216.04 86.0267 216.04 80C216.04 73.9733 217.267 68.8 219.72 64.48C222.227 60.16 225.533 56.9067 229.64 54.72C233.8 52.48 238.36 51.36 243.32 51.36C249.72 51.36 255.027 52.88 259.24 55.92C263.453 58.96 266.227 63.1733 267.56 68.56L254.76 72.24C252.627 66.4267 248.76 63.52 243.16 63.52C240.813 63.52 238.653 64.16 236.68 65.44C234.76 66.6667 233.213 68.5333 232.04 71.04C230.867 73.5467 230.28 76.5333 230.28 80C230.28 83.52 230.867 86.5333 232.04 89.04C233.213 91.4933 234.76 93.36 236.68 94.64C238.653 95.8667 240.813 96.48 243.16 96.48C248.76 96.48 252.627 93.5733 254.76 87.76L267.4 91.28C265.8 96.9867 262.92 101.307 258.76 104.24C254.6 107.173 249.453 108.64 243.32 108.64ZM275.866 52H290.106V71.52H308.666V52H322.906V108H308.666V84.64H290.106V108H275.866V52ZM359.029 108.64C354.122 108.64 349.562 107.573 345.349 105.44C341.189 103.307 337.829 100.08 335.269 95.76C332.762 91.44 331.509 86.1867 331.509 80C331.509 73.8133 332.762 68.56 335.269 64.24C337.829 59.92 341.189 56.6933 345.349 54.56C349.562 52.4267 354.122 51.36 359.029 51.36C363.935 51.36 368.469 52.4267 372.629 54.56C376.842 56.6933 380.202 59.92 382.709 64.24C385.269 68.56 386.549 73.8133 386.549 80C386.549 86.1867 385.269 91.44 382.709 95.76C380.202 100.08 376.842 103.307 372.629 105.44C368.469 107.573 363.935 108.64 359.029 108.64ZM359.029 96.48C362.869 96.48 366.042 95.0933 368.549 92.32C371.055 89.4933 372.309 85.3867 372.309 80C372.309 74.6133 371.055 70.5333 368.549 67.76C366.042 64.9333 362.869 63.52 359.029 63.52C355.189 63.52 352.015 64.9333 349.509 67.76C347.002 70.5333 345.749 74.6133 345.749 80C345.749 85.3867 347.002 89.4933 349.509 92.32C352.015 95.0933 355.189 96.48 359.029 96.48ZM411.185 108.64C405.745 108.64 401.238 107.173 397.665 104.24C394.092 101.253 391.825 97.4933 390.865 92.96L401.905 86C402.705 89.1467 403.878 91.68 405.425 93.6C406.972 95.52 408.945 96.48 411.345 96.48C412.785 96.48 413.958 96.1333 414.865 95.44C415.772 94.6933 416.225 93.5733 416.225 92.08C416.225 90.8 415.852 89.68 415.105 88.72C414.358 87.7067 413.398 86.8533 412.225 86.16C411.052 85.4667 409.398 84.6133 407.265 83.6L404.945 82.48C401.745 80.88 399.132 78.8533 397.105 76.4C395.078 73.9467 394.065 70.7467 394.065 66.8C394.065 63.92 394.732 61.3067 396.065 58.96C397.452 56.6133 399.425 54.7733 401.985 53.44C404.598 52.0533 407.612 51.36 411.025 51.36C415.292 51.36 418.758 52.2133 421.425 53.92C424.145 55.5733 426.252 58.2133 427.745 61.84L417.185 68.8C416.492 66.8267 415.638 65.4133 414.625 64.56C413.665 63.6533 412.465 63.2 411.025 63.2C409.905 63.2 408.998 63.52 408.305 64.16C407.665 64.7467 407.345 65.5467 407.345 66.56C407.345 68 408.118 69.28 409.665 70.4C411.265 71.4667 413.745 72.8 417.105 74.4L419.905 75.76C423.052 77.3067 425.558 79.28 427.425 81.68C429.292 84.0267 430.225 87.0133 430.225 90.64C430.225 94.32 429.425 97.52 427.825 100.24C426.225 102.96 423.985 105.04 421.105 106.48C418.225 107.92 414.918 108.64 411.185 108.64ZM224.6 188.64C222.467 188.64 220.68 187.947 219.24 186.56C217.853 185.12 217.16 183.333 217.16 181.2C217.16 179.067 217.853 177.307 219.24 175.92C220.68 174.48 222.467 173.76 224.6 173.76C226.733 173.76 228.493 174.48 229.88 175.92C231.32 177.307 232.04 179.067 232.04 181.2C232.04 183.333 231.32 185.12 229.88 186.56C228.493 187.947 226.733 188.64 224.6 188.64ZM264.101 188.64C259.035 188.64 254.421 187.547 250.261 185.36C246.155 183.12 242.875 179.84 240.421 175.52C238.021 171.2 236.821 166.027 236.821 160C236.821 153.973 238.048 148.8 240.501 144.48C243.008 140.16 246.315 136.907 250.421 134.72C254.581 132.48 259.141 131.36 264.101 131.36C270.501 131.36 275.808 132.88 280.021 135.92C284.235 138.96 287.008 143.173 288.341 148.56L275.541 152.24C273.408 146.427 269.541 143.52 263.941 143.52C261.595 143.52 259.435 144.16 257.461 145.44C255.541 146.667 253.995 148.533 252.821 151.04C251.648 153.547 251.061 156.533 251.061 160C251.061 163.52 251.648 166.533 252.821 169.04C253.995 171.493 255.541 173.36 257.461 174.64C259.435 175.867 261.595 176.48 263.941 176.48C269.541 176.48 273.408 173.573 275.541 167.76L288.181 171.28C286.581 176.987 283.701 181.307 279.541 184.24C275.381 187.173 270.235 188.64 264.101 188.64ZM321.607 188.64C316.7 188.64 312.14 187.573 307.927 185.44C303.767 183.307 300.407 180.08 297.847 175.76C295.34 171.44 294.087 166.187 294.087 160C294.087 153.813 295.34 148.56 297.847 144.24C300.407 139.92 303.767 136.693 307.927 134.56C312.14 132.427 316.7 131.36 321.607 131.36C326.514 131.36 331.047 132.427 335.207 134.56C339.42 136.693 342.78 139.92 345.287 144.24C347.847 148.56 349.127 153.813 349.127 160C349.127 166.187 347.847 171.44 345.287 175.76C342.78 180.08 339.42 183.307 335.207 185.44C331.047 187.573 326.514 188.64 321.607 188.64ZM321.607 176.48C325.447 176.48 328.62 175.093 331.127 172.32C333.634 169.493 334.887 165.387 334.887 160C334.887 154.613 333.634 150.533 331.127 147.76C328.62 144.933 325.447 143.52 321.607 143.52C317.767 143.52 314.594 144.933 312.087 147.76C309.58 150.533 308.327 154.613 308.327 160C308.327 165.387 309.58 169.493 312.087 172.32C314.594 175.093 317.767 176.48 321.607 176.48ZM357.741 132H372.141L384.541 164L396.941 132H411.341V188H398.541V158.4L389.101 182.88H379.981L370.541 158.4V188H357.741V132Z" fill="white"/>
<path d="M82.6544 234.408C146.133 234.408 197.048 192.75 197.048 117.7C197.048 42.3191 146.794 0 82.985 0H2C0.895429 0 0 0.895431 0 2V232.408C0 233.512 0.895431 234.408 2 234.408H82.6544Z" fill="white"/>
<path d="M71.3055 116.316L57.9765 79.6839C57.5019 78.3794 58.4679 77 59.856 77L121.169 77C121.947 77 122.655 77.452 122.983 78.1584L140.61 116.158C140.857 116.692 140.857 117.308 140.61 117.842L122.983 155.842C122.655 156.548 121.947 157 121.169 157L59.856 157C58.4679 157 57.5019 155.621 57.9765 154.316L71.3055 117.684C71.4662 117.242 71.4662 116.758 71.3055 116.316Z" fill="black"/>
</svg>
