<svg width="449" height="235" viewBox="0 0 449 235" fill="none" xmlns="http://www.w3.org/2000/svg">
<path d="M245.44 89.504V46.76H255.008C266.344 46.76 275.6 53.416 275.6 68.184C275.6 82.952 266.344 89.504 255.008 89.504H245.44ZM255.632 105C277.888 105 292.76 90.96 292.76 68.184C292.76 45.408 277.888 31.264 255.736 31.264H229.008V105H255.632ZM338.477 106.56C361.357 106.56 371.133 90.96 373.525 80.768L357.821 76.296C356.365 81.6 351.269 90.128 338.477 90.128C327.453 90.128 317.261 82.12 317.261 68.288C317.261 52.792 328.389 45.72 338.269 45.72C351.269 45.72 355.949 54.352 357.093 59.448L372.589 54.56C370.197 43.952 360.421 29.704 338.269 29.704C317.677 29.704 300.205 45.304 300.205 68.288C300.205 91.272 317.261 106.56 338.477 106.56ZM291.408 205V131.264H274.872V160.176H245.44V131.264H229.008V205H245.44V175.672H274.872V205H291.408ZM320.105 168.08C320.105 152.688 331.129 145.72 341.425 145.72C351.617 145.72 362.641 152.688 362.641 168.08C362.641 183.472 351.617 190.336 341.425 190.336C331.129 190.336 320.105 183.472 320.105 168.08ZM303.049 168.184C303.049 191.48 320.625 206.56 341.425 206.56C362.121 206.56 379.697 191.48 379.697 168.184C379.697 144.784 362.121 129.704 341.425 129.704C320.625 129.704 303.049 144.784 303.049 168.184ZM442.057 149.36C440.497 140.728 433.529 129.704 415.121 129.704C400.977 129.704 388.705 139.48 388.705 153.416C388.705 164.336 396.297 172.656 408.777 175.048L418.865 176.92C423.753 177.856 426.769 180.56 426.769 184.304C426.769 188.88 422.817 192 416.369 192C406.281 192 401.705 186.072 401.081 179.312L386.001 182.952C387.041 193.352 395.777 206.56 416.161 206.56C433.737 206.56 443.409 194.808 443.409 183.264C443.409 172.76 436.129 163.712 422.089 161.112L412.209 159.24C407.113 158.304 404.929 155.704 404.929 152.168C404.929 148.112 408.881 144.264 415.017 144.264C423.961 144.264 426.769 150.088 427.289 153.52L442.057 149.36Z" fill="white"/>
<path fill-rule="evenodd" clip-rule="evenodd" d="M197.048 117.7C197.048 192.75 146.133 234.408 82.6544 234.408H8C3.58172 234.408 0 230.826 0 226.408V8C0 3.58172 3.58171 0 7.99999 0H82.985C146.794 0 197.048 42.3191 197.048 117.7ZM135.233 148.768V122.246L88.1332 141.28L41.0332 115.83V148.768C41.0332 162.715 72.1611 170 88.1332 170C104.937 170 135.233 163.181 135.233 148.768ZM25.3333 95.4251L92.9322 65.3335L156.166 100.658V143.833H145.7V106.326L88.1332 129.442L25.3333 95.4251ZM140.466 170H161.4C158.213 164.029 156.166 157 156.166 149.067H145.7C145.7 156.917 143.491 164.767 140.466 170Z" fill="white"/>
</svg>
