<svg width="201" height="239" viewBox="0 0 201 239" fill="none" xmlns="http://www.w3.org/2000/svg">
<mask id="path-1-outside-1" maskUnits="userSpaceOnUse" x="0" y="0" width="201" height="239" fill="black">
<rect fill="white" width="201" height="239"/>
<path fill-rule="evenodd" clip-rule="evenodd" d="M199.048 119.7C199.048 194.75 148.133 236.408 84.6544 236.408H2V166.945L18.5 180L58.5 148.352V60L18.5 91.6484L2 78.5934V2H84.985C148.794 2 199.048 44.3191 199.048 119.7Z"/>
</mask>
<path fill-rule="evenodd" clip-rule="evenodd" d="M199.048 119.7C199.048 194.75 148.133 236.408 84.6544 236.408H2V166.945L18.5 180L58.5 148.352V60L18.5 91.6484L2 78.5934V2H84.985C148.794 2 199.048 44.3191 199.048 119.7Z" fill="url(#paint0_linear)"/>
<path d="M2 236.408H0.346912V238.061H2V236.408ZM2 166.945L3.02571 165.649L0.346912 163.529V166.945H2ZM18.5 180L17.4743 181.296L18.5 182.108L19.5257 181.296L18.5 180ZM58.5 148.352L59.5257 149.648L60.1531 149.152V148.352H58.5ZM58.5 60H60.1531V56.5841L57.4743 58.7036L58.5 60ZM18.5 91.6484L17.4743 92.9447L18.5 93.7563L19.5257 92.9447L18.5 91.6484ZM2 78.5934H0.346912V79.3934L0.974288 79.8898L2 78.5934ZM2 2V0.346912H0.346912V2H2ZM84.6544 238.061C116.754 238.061 145.783 227.525 166.799 207.391C187.829 187.245 200.701 157.617 200.701 119.7H197.395C197.395 156.833 184.81 185.559 164.512 205.004C144.201 224.462 116.034 234.755 84.6544 234.755V238.061ZM2 238.061H84.6544V234.755H2V238.061ZM0.346912 166.945V236.408H3.65309V166.945H0.346912ZM0.974288 168.241L17.4743 181.296L19.5257 178.704L3.02571 165.649L0.974288 168.241ZM19.5257 181.296L59.5257 149.648L57.4743 147.055L17.4743 178.704L19.5257 181.296ZM60.1531 148.352V60H56.8469V148.352H60.1531ZM57.4743 58.7036L17.4743 90.352L19.5257 92.9447L59.5257 61.2964L57.4743 58.7036ZM19.5257 90.352L3.02571 77.297L0.974288 79.8898L17.4743 92.9447L19.5257 90.352ZM0.346912 2V78.5934H3.65309V2H0.346912ZM84.985 0.346912H2V3.65309H84.985V0.346912ZM200.701 119.7C200.701 81.6272 188 51.7532 167.098 31.3978C146.206 11.0524 117.256 0.346912 84.985 0.346912V3.65309C116.524 3.65309 144.604 14.1071 164.792 33.7664C184.969 53.4158 197.395 82.3917 197.395 119.7H200.701Z" fill="black" mask="url(#path-1-outside-1)"/>
<defs>
<linearGradient id="paint0_linear" x1="199.625" y1="119.535" x2="-70.126" y2="119.535" gradientUnits="userSpaceOnUse">
<stop stop-color="white"/>
<stop offset="1"/>
</linearGradient>
</defs>
</svg>
