<svg width="201" height="359" viewBox="0 0 201 359" fill="none" xmlns="http://www.w3.org/2000/svg">
<path d="M5.73354 257.133H18.3742C21.6811 257.133 24.7212 257.809 27.4947 259.16C30.3038 260.511 32.5617 262.591 34.2684 265.4C35.9752 268.174 36.8286 271.641 36.8286 275.801C36.8286 279.961 35.9752 283.446 34.2684 286.255C32.5617 289.028 30.3038 291.091 27.4947 292.442C24.7212 293.793 21.6811 294.469 18.3742 294.469H5.73354V257.133ZM17.2008 286.362C20.1165 286.362 22.5345 285.544 24.4546 283.908C26.3747 282.273 27.3347 279.57 27.3347 275.801C27.3347 272.032 26.3747 269.33 24.4546 267.694C22.5345 266.058 20.1165 265.24 17.2008 265.24H15.014V286.362H17.2008ZM59.0915 294.895C55.7135 294.895 52.6378 294.167 49.8643 292.709C47.1264 291.215 44.9396 289.028 43.3039 286.148C41.7038 283.268 40.9038 279.819 40.9038 275.801C40.9038 271.783 41.7216 268.334 43.3573 265.454C45.0285 262.574 47.233 260.405 49.971 258.947C52.7444 257.453 55.7846 256.707 59.0915 256.707C63.3584 256.707 66.8963 257.72 69.7054 259.747C72.5144 261.774 74.3634 264.583 75.2523 268.174L66.7185 270.627C65.2962 266.752 62.7183 264.814 58.9848 264.814C57.4203 264.814 55.9802 265.24 54.6645 266.094C53.3845 266.912 52.3533 268.156 51.571 269.827C50.7888 271.499 50.3976 273.49 50.3976 275.801C50.3976 278.148 50.7888 280.157 51.571 281.828C52.3533 283.464 53.3845 284.708 54.6645 285.562C55.9802 286.379 57.4203 286.788 58.9848 286.788C62.7183 286.788 65.2962 284.85 66.7185 280.975L75.1457 283.321C74.0789 287.126 72.1588 290.006 69.3854 291.962C66.6119 293.918 63.1806 294.895 59.0915 294.895ZM80.7897 257.133H90.2836V270.147H102.658V257.133H112.151V294.469H102.658V278.895H90.2836V294.469H80.7897V257.133ZM136.235 294.895C132.964 294.895 129.923 294.184 127.114 292.762C124.341 291.34 122.101 289.188 120.394 286.308C118.723 283.428 117.887 279.926 117.887 275.801C117.887 271.676 118.723 268.174 120.394 265.294C122.101 262.414 124.341 260.262 127.114 258.84C129.923 257.418 132.964 256.707 136.235 256.707C139.506 256.707 142.529 257.418 145.302 258.84C148.111 260.262 150.351 262.414 152.022 265.294C153.729 268.174 154.583 271.676 154.583 275.801C154.583 279.926 153.729 283.428 152.022 286.308C150.351 289.188 148.111 291.34 145.302 292.762C142.529 294.184 139.506 294.895 136.235 294.895ZM136.235 286.788C138.795 286.788 140.911 285.864 142.582 284.015C144.253 282.13 145.089 279.392 145.089 275.801C145.089 272.21 144.253 269.49 142.582 267.641C140.911 265.756 138.795 264.814 136.235 264.814C133.675 264.814 131.559 265.756 129.888 267.641C128.217 269.49 127.381 272.21 127.381 275.801C127.381 279.392 128.217 282.13 129.888 284.015C131.559 285.864 133.675 286.788 136.235 286.788ZM171.008 294.895C167.381 294.895 164.376 293.918 161.994 291.962C159.611 289.971 158.1 287.464 157.46 284.442L164.821 279.801C165.354 281.899 166.136 283.588 167.167 284.868C168.199 286.148 169.514 286.788 171.114 286.788C172.074 286.788 172.857 286.557 173.461 286.095C174.066 285.597 174.368 284.85 174.368 283.855C174.368 283.001 174.119 282.255 173.621 281.615C173.123 280.939 172.483 280.37 171.701 279.908C170.919 279.446 169.816 278.877 168.394 278.201L166.847 277.454C164.714 276.388 162.972 275.037 161.62 273.401C160.269 271.765 159.594 269.632 159.594 267.001C159.594 265.08 160.038 263.338 160.927 261.774C161.852 260.209 163.167 258.982 164.874 258.093C166.616 257.169 168.625 256.707 170.901 256.707C173.746 256.707 176.057 257.276 177.835 258.413C179.648 259.516 181.053 261.276 182.048 263.694L175.008 268.334C174.546 267.018 173.977 266.076 173.301 265.507C172.661 264.903 171.861 264.6 170.901 264.6C170.154 264.6 169.55 264.814 169.087 265.24C168.661 265.632 168.447 266.165 168.447 266.841C168.447 267.801 168.963 268.654 169.994 269.401C171.061 270.112 172.714 271.001 174.954 272.068L176.821 272.974C178.919 274.005 180.59 275.321 181.835 276.921C183.079 278.486 183.702 280.477 183.702 282.895C183.702 285.348 183.168 287.482 182.102 289.295C181.035 291.109 179.541 292.495 177.621 293.455C175.701 294.415 173.497 294.895 171.008 294.895ZM9.73376 347.895C8.31146 347.895 7.12028 347.433 6.16023 346.509C5.23573 345.549 4.77349 344.357 4.77349 342.935C4.77349 341.513 5.23573 340.339 6.16023 339.415C7.12028 338.455 8.31146 337.975 9.73376 337.975C11.1561 337.975 12.3295 338.455 13.2539 339.415C14.214 340.339 14.694 341.513 14.694 342.935C14.694 344.357 14.214 345.549 13.2539 346.509C12.3295 347.433 11.1561 347.895 9.73376 347.895ZM36.0694 347.895C32.6914 347.895 29.6157 347.167 26.8422 345.709C24.1043 344.215 21.9175 342.028 20.2818 339.148C18.6817 336.268 17.8817 332.819 17.8817 328.801C17.8817 324.783 18.6995 321.334 20.3352 318.454C22.0064 315.574 24.2109 313.405 26.9489 311.947C29.7223 310.453 32.7625 309.707 36.0694 309.707C40.3363 309.707 43.8742 310.72 46.6833 312.747C49.4923 314.774 51.3413 317.583 52.2302 321.174L43.6964 323.627C42.2741 319.752 39.6962 317.814 35.9627 317.814C34.3982 317.814 32.9581 318.24 31.6425 319.094C30.3624 319.912 29.3312 321.156 28.549 322.827C27.7667 324.499 27.3756 326.49 27.3756 328.801C27.3756 331.148 27.7667 333.157 28.549 334.828C29.3312 336.464 30.3624 337.708 31.6425 338.562C32.9581 339.379 34.3982 339.788 35.9627 339.788C39.6962 339.788 42.2741 337.85 43.6964 333.975L52.1236 336.321C51.0569 340.126 49.1367 343.006 46.3633 344.962C43.5898 346.918 40.1585 347.895 36.0694 347.895ZM74.4085 347.895C71.1373 347.895 68.0971 347.184 65.288 345.762C62.5146 344.34 60.2744 342.188 58.5677 339.308C56.8965 336.428 56.0609 332.926 56.0609 328.801C56.0609 324.676 56.8965 321.174 58.5677 318.294C60.2744 315.414 62.5146 313.262 65.288 311.84C68.0971 310.418 71.1373 309.707 74.4085 309.707C77.6798 309.707 80.7022 310.418 83.4757 311.84C86.2848 313.262 88.5249 315.414 90.1961 318.294C91.9028 321.174 92.7562 324.676 92.7562 328.801C92.7562 332.926 91.9028 336.428 90.1961 339.308C88.5249 342.188 86.2848 344.34 83.4757 345.762C80.7022 347.184 77.6798 347.895 74.4085 347.895ZM74.4085 339.788C76.9687 339.788 79.0844 338.864 80.7556 337.015C82.4268 335.13 83.2624 332.392 83.2624 328.801C83.2624 325.21 82.4268 322.49 80.7556 320.641C79.0844 318.756 76.9687 317.814 74.4085 317.814C71.8484 317.814 69.7327 318.756 68.0615 320.641C66.3903 322.49 65.5547 325.21 65.5547 328.801C65.5547 332.392 66.3903 335.13 68.0615 337.015C69.7327 338.864 71.8484 339.788 74.4085 339.788ZM98.499 310.133H108.1L116.367 331.468L124.634 310.133H134.234V347.469H125.701V327.734L119.407 344.055H113.327L107.033 327.734V347.469H98.499V310.133Z" fill="url(#paint0_linear)"/>
<mask id="path-2-outside-1" maskUnits="userSpaceOnUse" x="0" y="0" width="201" height="239" fill="black">
<rect fill="white" width="201" height="239"/>
<path fill-rule="evenodd" clip-rule="evenodd" d="M199.048 119.7C199.048 194.75 148.133 236.408 84.6544 236.408H2V166.945L18.5 180L58.5 148.352V60L18.5 91.6484L2 78.5934V2H84.985C148.794 2 199.048 44.3191 199.048 119.7Z"/>
</mask>
<path fill-rule="evenodd" clip-rule="evenodd" d="M199.048 119.7C199.048 194.75 148.133 236.408 84.6544 236.408H2V166.945L18.5 180L58.5 148.352V60L18.5 91.6484L2 78.5934V2H84.985C148.794 2 199.048 44.3191 199.048 119.7Z" fill="white"/>
<path d="M2 236.408H0.346912V238.061H2V236.408ZM2 166.945L3.02571 165.649L0.346912 163.529V166.945H2ZM18.5 180L17.4743 181.296L18.5 182.108L19.5257 181.296L18.5 180ZM58.5 148.352L59.5257 149.648L60.1531 149.152V148.352H58.5ZM58.5 60H60.1531V56.5841L57.4743 58.7036L58.5 60ZM18.5 91.6484L17.4743 92.9447L18.5 93.7563L19.5257 92.9447L18.5 91.6484ZM2 78.5934H0.346912V79.3934L0.974288 79.8898L2 78.5934ZM2 2V0.346912H0.346912V2H2ZM84.6544 238.061C116.754 238.061 145.783 227.525 166.799 207.391C187.829 187.245 200.701 157.617 200.701 119.7H197.395C197.395 156.833 184.81 185.559 164.512 205.004C144.201 224.462 116.034 234.755 84.6544 234.755V238.061ZM2 238.061H84.6544V234.755H2V238.061ZM0.346912 166.945V236.408H3.65309V166.945H0.346912ZM0.974288 168.241L17.4743 181.296L19.5257 178.704L3.02571 165.649L0.974288 168.241ZM19.5257 181.296L59.5257 149.648L57.4743 147.055L17.4743 178.704L19.5257 181.296ZM60.1531 148.352V60H56.8469V148.352H60.1531ZM57.4743 58.7036L17.4743 90.352L19.5257 92.9447L59.5257 61.2964L57.4743 58.7036ZM19.5257 90.352L3.02571 77.297L0.974288 79.8898L17.4743 92.9447L19.5257 90.352ZM0.346912 2V78.5934H3.65309V2H0.346912ZM84.985 0.346912H2V3.65309H84.985V0.346912ZM200.701 119.7C200.701 81.6272 188 51.7532 167.098 31.3978C146.206 11.0524 117.256 0.346912 84.985 0.346912V3.65309C116.524 3.65309 144.604 14.1071 164.792 33.7664C184.969 53.4158 197.395 82.3917 197.395 119.7H200.701Z" fill="black" mask="url(#path-2-outside-1)"/>
<defs>
<linearGradient id="paint0_linear" x1="244.517" y1="325.783" x2="143.811" y2="193.587" gradientUnits="userSpaceOnUse">
<stop stop-color="#E5E4E2" stop-opacity="0.7"/>
<stop offset="1" stop-color="#FFFFFE"/>
</linearGradient>
</defs>
</svg>
